<?xml version="1.0" encoding="UTF-8"?>
<svg xmlns="http://www.w3.org/2000/svg" width="900" height="640" viewBox="0 0 900 640" role="img" aria-label="H2338 chain_D object projection">
<rect width="100%" height="100%" fill="#f8fafc"/>
<text x="58" y="38" font-family="Arial, sans-serif" font-size="22" font-weight="700" fill="#111827">H2338 chain_D object projection</text>
<text x="58" y="62" font-family="Arial, sans-serif" font-size="13" fill="#475569">atoms shown: 238; all atoms: 1166; bbox diagonal: 81.9 A</text>
<polyline points="335.4,152.6 323.4,188.9 283.2,186.9 361.3,145.0 345.0,112.3 279.8,203.2 413.1,95.5 318.5,209.5 436.2,124.5 378.0,105.4 326.1,128.1 424.7,159.1 390.2,140.4 323.3,202.5 406.6,118.4 456.5,159.9 406.8,158.2 352.5,128.0 422.9,136.0 354.7,225.5 367.3,165.4 436.1,98.1 457.6,130.2 442.8,115.1 385.9,114.9 422.4,119.6 376.9,150.1 439.0,132.3 410.2,159.1 420.1,98.5 478.0,208.4 509.6,232.7 428.5,162.4 469.1,111.0 464.3,176.4 430.8,99.2 493.4,265.6 525.5,288.0 460.4,212.1 427.1,247.3 306.9,161.3 474.4,143.8 411.6,149.9 520.4,249.1 377.3,159.9 499.0,192.5 485.1,230.1 470.2,94.6 523.5,224.4 473.0,119.0 471.9,192.1 434.0,112.1 414.9,174.2 329.7,192.4 466.6,248.9 304.4,123.5 372.2,121.8 368.8,193.1 452.6,227.8 430.3,58.0 441.5,322.4 432.8,145.3 410.2,270.5 465.3,160.2 436.3,196.6 436.8,284.0 502.0,105.0 444.4,128.5 524.7,290.1 478.4,335.9 545.2,258.9 474.5,226.7 426.8,167.9 466.8,68.0 399.0,77.9 390.0,238.4 370.9,175.4 279.5,109.6 428.7,233.0 508.2,143.1 416.0,140.5 493.0,195.5 448.4,260.7 391.8,171.2 519.9,235.0 409.4,189.3 470.5,126.4 476.0,173.1 515.7,179.9 482.2,248.8 432.8,112.4 473.2,202.0 425.3,285.4 313.6,135.3 367.1,137.5 446.4,238.5 469.7,147.9 467.0,226.6 415.0,208.4 458.0,309.3 284.8,163.2 421.1,246.9 493.6,290.6 382.4,195.7 464.6,273.5 408.6,299.7 420.0,127.9 504.5,219.9 427.8,318.2 404.8,110.0 439.5,152.1 258.4,134.4 452.1,169.4 482.7,313.9 474.1,110.3 493.6,190.9 401.0,162.0 544.0,243.0 444.1,188.5 457.2,221.4 410.6,236.4 431.9,238.5 533.8,204.3 475.3,199.3 397.8,124.9 413.5,181.4 478.3,154.2 460.0,260.7 435.3,125.7 450.5,330.3 488.7,213.2 437.8,292.2 337.1,181.4 458.3,204.6 446.9,238.8 315.5,128.5 493.8,160.0 458.1,140.8 425.9,185.8 357.2,147.9 500.7,116.2 302.3,165.7 438.6,317.8 478.1,259.4 414.4,168.7 454.9,167.6 479.7,149.5 478.7,181.4 407.7,208.4 472.5,298.3 468.0,234.7 446.2,107.0 447.0,129.4 414.7,154.2 538.0,322.3 458.0,187.9 479.1,108.3 461.7,140.1 436.5,218.6 354.3,158.1 572.4,333.0 487.9,178.1 380.9,187.9 508.9,305.6 444.9,160.6 524.7,319.2 590.7,444.5 615.2,505.7 545.9,488.8 551.1,368.5 544.1,408.1 577.1,515.1 563.9,473.0 511.1,154.0 464.0,155.3 477.7,131.4 517.5,488.8 437.3,185.3 555.2,504.5 530.0,450.1 498.3,295.0 532.3,351.4 641.6,484.6 573.5,354.7 384.2,187.4 523.3,313.1 437.9,155.0 549.2,343.6 480.9,217.7 537.0,459.4 423.6,192.6 523.5,488.6 592.2,434.2 531.8,428.3 508.0,226.6 540.4,250.5 560.3,324.6 486.8,350.7 524.6,286.9 459.8,185.8 555.7,521.9 505.5,190.8 552.6,458.7 539.7,334.2 490.9,287.8 552.0,483.2 636.0,482.7 519.4,479.9 540.0,401.5 606.9,455.9 499.3,381.6 472.4,176.0 526.7,276.2 513.3,204.7 481.6,322.5 538.0,483.6 549.0,367.7 553.8,346.5 553.3,206.5 504.3,449.0 522.6,363.6 495.7,222.3 531.1,422.4 571.3,309.7 532.3,299.4 556.2,555.3 570.4,349.8 478.3,187.5 532.8,502.7 557.2,230.7 593.5,554.0 565.2,520.8 606.4,518.1 521.3,228.0 539.4,571.5 602.3,582.0 556.0,540.5 588.7,559.4" fill="none" stroke="#334155" stroke-width="1.25" stroke-opacity="0.42"/>
<circle cx="335.4" cy="152.6" r="2.2" fill="rgb(43,103,160)" fill-opacity="0.82" stroke="#172033" stroke-width="0.45"><title>SER 7 CA</title></circle>
<circle cx="323.4" cy="188.9" r="2.3" fill="rgb(46,104,158)" fill-opacity="0.82" stroke="#172033" stroke-width="0.45"><title>ALA 6 CA</title></circle>
<circle cx="283.2" cy="186.9" r="2.3" fill="rgb(46,105,157)" fill-opacity="0.82" stroke="#172033" stroke-width="0.45"><title>THR 5 CA</title></circle>
<circle cx="361.3" cy="145.0" r="2.4" fill="rgb(50,107,155)" fill-opacity="0.82" stroke="#172033" stroke-width="0.45"><title>VAL 8 CA</title></circle>
<circle cx="345.0" cy="112.3" r="2.5" fill="rgb(55,109,153)" fill-opacity="0.82" stroke="#172033" stroke-width="0.45"><title>ARG 9 CA</title></circle>
<circle cx="279.8" cy="203.2" r="2.5" fill="rgb(56,110,152)" fill-opacity="0.82" stroke="#172033" stroke-width="0.45"><title>GLY 4 CA</title></circle>
<circle cx="413.1" cy="95.5" r="2.6" fill="rgb(58,111,151)" fill-opacity="0.82" stroke="#172033" stroke-width="0.45"><title>THR 21 CA</title></circle>
<circle cx="318.5" cy="209.5" r="2.6" fill="rgb(58,111,151)" fill-opacity="0.82" stroke="#172033" stroke-width="0.45"><title>GLY 3 CA</title></circle>
<circle cx="436.2" cy="124.5" r="2.7" fill="rgb(62,113,149)" fill-opacity="0.82" stroke="#172033" stroke-width="0.45"><title>SER 22 CA</title></circle>
<circle cx="378.0" cy="105.4" r="2.7" fill="rgb(62,113,149)" fill-opacity="0.82" stroke="#172033" stroke-width="0.45"><title>THR 20 CA</title></circle>
<circle cx="326.1" cy="128.1" r="2.7" fill="rgb(63,114,148)" fill-opacity="0.82" stroke="#172033" stroke-width="0.45"><title>GLY 10 CA</title></circle>
<circle cx="424.7" cy="159.1" r="2.7" fill="rgb(64,114,147)" fill-opacity="0.82" stroke="#172033" stroke-width="0.45"><title>LEU 18 CA</title></circle>
<circle cx="390.2" cy="140.4" r="2.8" fill="rgb(66,116,146)" fill-opacity="0.82" stroke="#172033" stroke-width="0.45"><title>HIS 19 CA</title></circle>
<circle cx="323.3" cy="202.5" r="2.8" fill="rgb(69,117,145)" fill-opacity="0.82" stroke="#172033" stroke-width="0.45"><title>VAL 2 CA</title></circle>
<circle cx="406.6" cy="118.4" r="2.8" fill="rgb(69,117,144)" fill-opacity="0.82" stroke="#172033" stroke-width="0.45"><title>TRP 14 CA</title></circle>
<circle cx="456.5" cy="159.9" r="2.9" fill="rgb(71,118,144)" fill-opacity="0.82" stroke="#172033" stroke-width="0.45"><title>THR 17 CA</title></circle>
<circle cx="406.8" cy="158.2" r="2.9" fill="rgb(71,118,144)" fill-opacity="0.82" stroke="#172033" stroke-width="0.45"><title>PRO 13 CA</title></circle>
<circle cx="352.5" cy="128.0" r="2.9" fill="rgb(71,118,143)" fill-opacity="0.82" stroke="#172033" stroke-width="0.45"><title>GLU 11 CA</title></circle>
<circle cx="422.9" cy="136.0" r="2.9" fill="rgb(71,118,143)" fill-opacity="0.82" stroke="#172033" stroke-width="0.45"><title>PRO 23 CA</title></circle>
<circle cx="354.7" cy="225.5" r="2.9" fill="rgb(72,119,143)" fill-opacity="0.82" stroke="#172033" stroke-width="0.45"><title>ILE 1 CA</title></circle>
<circle cx="367.3" cy="165.4" r="2.9" fill="rgb(72,119,143)" fill-opacity="0.82" stroke="#172033" stroke-width="0.45"><title>TRP 12 CA</title></circle>
<circle cx="436.1" cy="98.1" r="3.0" fill="rgb(74,120,142)" fill-opacity="0.82" stroke="#172033" stroke-width="0.45"><title>GLN 15 CA</title></circle>
<circle cx="457.6" cy="130.2" r="3.0" fill="rgb(78,122,140)" fill-opacity="0.82" stroke="#172033" stroke-width="0.45"><title>VAL 16 CA</title></circle>
<circle cx="442.8" cy="115.1" r="3.1" fill="rgb(79,123,139)" fill-opacity="0.82" stroke="#172033" stroke-width="0.45"><title>THR 24 CA</title></circle>
<circle cx="385.9" cy="114.9" r="3.2" fill="rgb(84,125,137)" fill-opacity="0.82" stroke="#172033" stroke-width="0.45"><title>ARG 26 CA</title></circle>
<circle cx="422.4" cy="119.6" r="3.3" fill="rgb(88,128,134)" fill-opacity="0.82" stroke="#172033" stroke-width="0.45"><title>GLN 25 CA</title></circle>
<circle cx="376.9" cy="150.1" r="3.3" fill="rgb(88,128,134)" fill-opacity="0.82" stroke="#172033" stroke-width="0.45"><title>HIS 27 CA</title></circle>
<circle cx="439.0" cy="132.3" r="3.4" fill="rgb(91,130,132)" fill-opacity="0.82" stroke="#172033" stroke-width="0.45"><title>CYS 29 CA</title></circle>
<circle cx="410.2" cy="159.1" r="3.4" fill="rgb(94,131,131)" fill-opacity="0.82" stroke="#172033" stroke-width="0.45"><title>LEU 28 CA</title></circle>
<circle cx="420.1" cy="98.5" r="3.4" fill="rgb(94,131,131)" fill-opacity="0.82" stroke="#172033" stroke-width="0.45"><title>GLY 30 CA</title></circle>
<circle cx="478.0" cy="208.4" r="3.5" fill="rgb(99,134,128)" fill-opacity="0.82" stroke="#172033" stroke-width="0.45"><title>GLY 118 CA</title></circle>
<circle cx="509.6" cy="232.7" r="3.6" fill="rgb(100,134,127)" fill-opacity="0.82" stroke="#172033" stroke-width="0.45"><title>ASP 119 CA</title></circle>
<circle cx="428.5" cy="162.4" r="3.6" fill="rgb(101,135,127)" fill-opacity="0.82" stroke="#172033" stroke-width="0.45"><title>GLY 35 CA</title></circle>
<circle cx="469.1" cy="111.0" r="3.6" fill="rgb(104,136,125)" fill-opacity="0.82" stroke="#172033" stroke-width="0.45"><title>SER 32 CA</title></circle>
<circle cx="464.3" cy="176.4" r="3.7" fill="rgb(104,136,125)" fill-opacity="0.82" stroke="#172033" stroke-width="0.45"><title>ILE 34 CA</title></circle>
<circle cx="430.8" cy="99.2" r="3.7" fill="rgb(104,137,125)" fill-opacity="0.82" stroke="#172033" stroke-width="0.45"><title>GLY 31 CA</title></circle>
<circle cx="493.4" cy="265.6" r="3.7" fill="rgb(105,137,125)" fill-opacity="0.82" stroke="#172033" stroke-width="0.45"><title>ARG 120 CA</title></circle>
<circle cx="525.5" cy="288.0" r="3.7" fill="rgb(107,138,123)" fill-opacity="0.82" stroke="#172033" stroke-width="0.45"><title>ASN 121 CA</title></circle>
<circle cx="460.4" cy="212.1" r="3.8" fill="rgb(108,139,123)" fill-opacity="0.82" stroke="#172033" stroke-width="0.45"><title>LYS 117 CA</title></circle>
<circle cx="427.1" cy="247.3" r="3.8" fill="rgb(109,139,123)" fill-opacity="0.82" stroke="#172033" stroke-width="0.45"><title>THR 144 CA</title></circle>
<circle cx="306.9" cy="161.3" r="3.8" fill="rgb(109,139,122)" fill-opacity="0.82" stroke="#172033" stroke-width="0.45"><title>SER 72 CA</title></circle>
<circle cx="474.4" cy="143.8" r="3.8" fill="rgb(110,140,122)" fill-opacity="0.82" stroke="#172033" stroke-width="0.45"><title>ILE 33 CA</title></circle>
<circle cx="411.6" cy="149.9" r="3.8" fill="rgb(110,140,122)" fill-opacity="0.82" stroke="#172033" stroke-width="0.45"><title>ASN 36 CA</title></circle>
<circle cx="520.4" cy="249.1" r="3.8" fill="rgb(110,140,122)" fill-opacity="0.82" stroke="#172033" stroke-width="0.45"><title>TYR 105 CA</title></circle>
<circle cx="377.3" cy="159.9" r="3.8" fill="rgb(110,140,121)" fill-opacity="0.82" stroke="#172033" stroke-width="0.45"><title>HIS 82 CA</title></circle>
<circle cx="499.0" cy="192.5" r="3.8" fill="rgb(111,140,121)" fill-opacity="0.82" stroke="#172033" stroke-width="0.45"><title>ILE 112 CA</title></circle>
<circle cx="485.1" cy="230.1" r="3.8" fill="rgb(111,140,121)" fill-opacity="0.82" stroke="#172033" stroke-width="0.45"><title>THR 106 CA</title></circle>
<circle cx="470.2" cy="94.6" r="3.8" fill="rgb(111,140,121)" fill-opacity="0.82" stroke="#172033" stroke-width="0.45"><title>ALA 42 CA</title></circle>
<circle cx="523.5" cy="224.4" r="3.8" fill="rgb(111,140,121)" fill-opacity="0.82" stroke="#172033" stroke-width="0.45"><title>CYS 113 CA</title></circle>
<circle cx="473.0" cy="119.0" r="3.8" fill="rgb(111,141,121)" fill-opacity="0.82" stroke="#172033" stroke-width="0.45"><title>GLU 156 CA</title></circle>
<circle cx="471.9" cy="192.1" r="3.8" fill="rgb(112,141,121)" fill-opacity="0.82" stroke="#172033" stroke-width="0.45"><title>ASP 107 CA</title></circle>
<circle cx="434.0" cy="112.1" r="3.8" fill="rgb(112,141,121)" fill-opacity="0.82" stroke="#172033" stroke-width="0.45"><title>THR 41 CA</title></circle>
<circle cx="414.9" cy="174.2" r="3.8" fill="rgb(112,141,121)" fill-opacity="0.82" stroke="#172033" stroke-width="0.45"><title>ILE 79 CA</title></circle>
<circle cx="329.7" cy="192.4" r="3.9" fill="rgb(112,141,121)" fill-opacity="0.82" stroke="#172033" stroke-width="0.45"><title>PHE 73 CA</title></circle>
<circle cx="466.6" cy="248.9" r="3.9" fill="rgb(112,141,120)" fill-opacity="0.82" stroke="#172033" stroke-width="0.45"><title>SER 116 CA</title></circle>
<circle cx="304.4" cy="123.5" r="3.9" fill="rgb(113,141,120)" fill-opacity="0.82" stroke="#172033" stroke-width="0.45"><title>THR 71 CA</title></circle>
<circle cx="372.2" cy="121.8" r="3.9" fill="rgb(114,142,120)" fill-opacity="0.82" stroke="#172033" stroke-width="0.45"><title>ASP 83 CA</title></circle>
<circle cx="368.8" cy="193.1" r="3.9" fill="rgb(115,142,119)" fill-opacity="0.82" stroke="#172033" stroke-width="0.45"><title>PHE 74 CA</title></circle>
<circle cx="452.6" cy="227.8" r="3.9" fill="rgb(115,143,119)" fill-opacity="0.82" stroke="#172033" stroke-width="0.45"><title>LEU 145 CA</title></circle>
<circle cx="430.3" cy="58.0" r="3.9" fill="rgb(115,143,119)" fill-opacity="0.82" stroke="#172033" stroke-width="0.45"><title>HIS 44 CA</title></circle>
<circle cx="441.5" cy="322.4" r="3.9" fill="rgb(116,143,119)" fill-opacity="0.82" stroke="#172033" stroke-width="0.45"><title>TRP 132 CA</title></circle>
<circle cx="432.8" cy="145.3" r="3.9" fill="rgb(116,143,118)" fill-opacity="0.82" stroke="#172033" stroke-width="0.45"><title>GLU 78 CA</title></circle>
<circle cx="410.2" cy="270.5" r="3.9" fill="rgb(116,143,118)" fill-opacity="0.82" stroke="#172033" stroke-width="0.45"><title>ASN 143 CA</title></circle>
<circle cx="465.3" cy="160.2" r="3.9" fill="rgb(116,143,118)" fill-opacity="0.82" stroke="#172033" stroke-width="0.45"><title>TRP 38 CA</title></circle>
<circle cx="436.3" cy="196.6" r="4.0" fill="rgb(117,143,118)" fill-opacity="0.82" stroke="#172033" stroke-width="0.45"><title>SER 108 CA</title></circle>
<circle cx="436.8" cy="284.0" r="4.0" fill="rgb(118,144,117)" fill-opacity="0.82" stroke="#172033" stroke-width="0.45"><title>ARG 138 CA</title></circle>
<circle cx="502.0" cy="105.0" r="4.0" fill="rgb(118,144,117)" fill-opacity="0.82" stroke="#172033" stroke-width="0.45"><title>GLU 157 CA</title></circle>
<circle cx="444.4" cy="128.5" r="4.0" fill="rgb(118,144,117)" fill-opacity="0.82" stroke="#172033" stroke-width="0.45"><title>ASN 155 CA</title></circle>
<circle cx="524.7" cy="290.1" r="4.0" fill="rgb(118,144,117)" fill-opacity="0.82" stroke="#172033" stroke-width="0.45"><title>VAL 122 CA</title></circle>
<circle cx="478.4" cy="335.9" r="4.0" fill="rgb(118,144,117)" fill-opacity="0.82" stroke="#172033" stroke-width="0.45"><title>GLY 133 CA</title></circle>
<circle cx="545.2" cy="258.9" r="4.0" fill="rgb(118,144,117)" fill-opacity="0.82" stroke="#172033" stroke-width="0.45"><title>ASN 104 CA</title></circle>
<circle cx="474.5" cy="226.7" r="4.0" fill="rgb(118,144,117)" fill-opacity="0.82" stroke="#172033" stroke-width="0.45"><title>LEU 97 CA</title></circle>
<circle cx="426.8" cy="167.9" r="4.0" fill="rgb(119,145,117)" fill-opacity="0.82" stroke="#172033" stroke-width="0.45"><title>GLN 37 CA</title></circle>
<circle cx="466.8" cy="68.0" r="4.0" fill="rgb(119,145,117)" fill-opacity="0.82" stroke="#172033" stroke-width="0.45"><title>ALA 43 CA</title></circle>
<circle cx="399.0" cy="77.9" r="4.0" fill="rgb(120,145,116)" fill-opacity="0.82" stroke="#172033" stroke-width="0.45"><title>CYS 45 CA</title></circle>
<circle cx="390.0" cy="238.4" r="4.0" fill="rgb(120,145,116)" fill-opacity="0.82" stroke="#172033" stroke-width="0.45"><title>GLN 142 CA</title></circle>
<circle cx="370.9" cy="175.4" r="4.0" fill="rgb(120,145,116)" fill-opacity="0.82" stroke="#172033" stroke-width="0.45"><title>ILE 81 CA</title></circle>
<circle cx="279.5" cy="109.6" r="4.0" fill="rgb(120,145,116)" fill-opacity="0.82" stroke="#172033" stroke-width="0.45"><title>ASP 70 CA</title></circle>
<circle cx="428.7" cy="233.0" r="4.0" fill="rgb(120,146,116)" fill-opacity="0.82" stroke="#172033" stroke-width="0.45"><title>GLN 109 CA</title></circle>
<circle cx="508.2" cy="143.1" r="4.1" fill="rgb(121,146,116)" fill-opacity="0.82" stroke="#172033" stroke-width="0.45"><title>CYS 158 CA</title></circle>
<circle cx="416.0" cy="140.5" r="4.1" fill="rgb(121,146,116)" fill-opacity="0.82" stroke="#172033" stroke-width="0.45"><title>LYS 86 CA</title></circle>
<circle cx="493.0" cy="195.5" r="4.1" fill="rgb(121,146,116)" fill-opacity="0.82" stroke="#172033" stroke-width="0.45"><title>PRO 111 CA</title></circle>
<circle cx="448.4" cy="260.7" r="4.1" fill="rgb(121,146,116)" fill-opacity="0.82" stroke="#172033" stroke-width="0.45"><title>GLN 146 CA</title></circle>
<circle cx="391.8" cy="171.2" r="4.1" fill="rgb(121,146,115)" fill-opacity="0.82" stroke="#172033" stroke-width="0.45"><title>MET 87 CA</title></circle>
<circle cx="519.9" cy="235.0" r="4.1" fill="rgb(121,146,115)" fill-opacity="0.82" stroke="#172033" stroke-width="0.45"><title>LEU 114 CA</title></circle>
<circle cx="409.4" cy="189.3" r="4.1" fill="rgb(122,146,115)" fill-opacity="0.82" stroke="#172033" stroke-width="0.45"><title>ILE 80 CA</title></circle>
<circle cx="470.5" cy="126.4" r="4.1" fill="rgb(122,146,115)" fill-opacity="0.82" stroke="#172033" stroke-width="0.45"><title>ILE 39 CA</title></circle>
<circle cx="476.0" cy="173.1" r="4.1" fill="rgb(122,146,115)" fill-opacity="0.82" stroke="#172033" stroke-width="0.45"><title>GLU 100 CA</title></circle>
<circle cx="515.7" cy="179.9" r="4.1" fill="rgb(122,147,115)" fill-opacity="0.82" stroke="#172033" stroke-width="0.45"><title>THR 101 CA</title></circle>
<circle cx="482.2" cy="248.8" r="4.1" fill="rgb(122,147,115)" fill-opacity="0.82" stroke="#172033" stroke-width="0.45"><title>PRO 115 CA</title></circle>
<circle cx="432.8" cy="112.4" r="4.1" fill="rgb(122,147,115)" fill-opacity="0.82" stroke="#172033" stroke-width="0.45"><title>LEU 40 CA</title></circle>
<circle cx="473.2" cy="202.0" r="4.1" fill="rgb(122,147,115)" fill-opacity="0.82" stroke="#172033" stroke-width="0.45"><title>ILE 150 CA</title></circle>
<circle cx="425.3" cy="285.4" r="4.1" fill="rgb(122,147,115)" fill-opacity="0.82" stroke="#172033" stroke-width="0.45"><title>THR 125 CA</title></circle>
<circle cx="313.6" cy="135.3" r="4.1" fill="rgb(123,147,114)" fill-opacity="0.82" stroke="#172033" stroke-width="0.45"><title>ILE 67 CA</title></circle>
<circle cx="367.1" cy="137.5" r="4.1" fill="rgb(123,147,114)" fill-opacity="0.82" stroke="#172033" stroke-width="0.45"><title>GLN 84 CA</title></circle>
<circle cx="446.4" cy="238.5" r="4.1" fill="rgb(123,147,114)" fill-opacity="0.82" stroke="#172033" stroke-width="0.45"><title>LYS 140 CA</title></circle>
<circle cx="469.7" cy="147.9" r="4.1" fill="rgb(124,147,114)" fill-opacity="0.82" stroke="#172033" stroke-width="0.45"><title>GLN 159 CA</title></circle>
<circle cx="467.0" cy="226.6" r="4.1" fill="rgb(124,147,114)" fill-opacity="0.82" stroke="#172033" stroke-width="0.45"><title>ARG 110 CA</title></circle>
<circle cx="415.0" cy="208.4" r="4.1" fill="rgb(124,147,114)" fill-opacity="0.82" stroke="#172033" stroke-width="0.45"><title>ALA 148 CA</title></circle>
<circle cx="458.0" cy="309.3" r="4.1" fill="rgb(124,147,114)" fill-opacity="0.82" stroke="#172033" stroke-width="0.45"><title>TYR 124 CA</title></circle>
<circle cx="284.8" cy="163.2" r="4.1" fill="rgb(124,148,114)" fill-opacity="0.82" stroke="#172033" stroke-width="0.45"><title>LYS 68 CA</title></circle>
<circle cx="421.1" cy="246.9" r="4.1" fill="rgb(124,148,114)" fill-opacity="0.82" stroke="#172033" stroke-width="0.45"><title>ASP 126 CA</title></circle>
<circle cx="493.6" cy="290.6" r="4.1" fill="rgb(125,148,114)" fill-opacity="0.82" stroke="#172033" stroke-width="0.45"><title>ILE 123 CA</title></circle>
<circle cx="382.4" cy="195.7" r="4.1" fill="rgb(125,148,114)" fill-opacity="0.82" stroke="#172033" stroke-width="0.45"><title>GLY 75 CA</title></circle>
<circle cx="464.6" cy="273.5" r="4.2" fill="rgb(125,148,113)" fill-opacity="0.82" stroke="#172033" stroke-width="0.45"><title>ASP 139 CA</title></circle>
<circle cx="408.6" cy="299.7" r="4.2" fill="rgb(125,148,113)" fill-opacity="0.82" stroke="#172033" stroke-width="0.45"><title>LEU 137 CA</title></circle>
<circle cx="420.0" cy="127.9" r="4.2" fill="rgb(125,148,113)" fill-opacity="0.82" stroke="#172033" stroke-width="0.45"><title>GLN 77 CA</title></circle>
<circle cx="504.5" cy="219.9" r="4.2" fill="rgb(125,148,113)" fill-opacity="0.82" stroke="#172033" stroke-width="0.45"><title>LYS 98 CA</title></circle>
<circle cx="427.8" cy="318.2" r="4.2" fill="rgb(126,148,113)" fill-opacity="0.82" stroke="#172033" stroke-width="0.45"><title>GLY 131 CA</title></circle>
<circle cx="404.8" cy="110.0" r="4.2" fill="rgb(126,148,113)" fill-opacity="0.82" stroke="#172033" stroke-width="0.45"><title>PHE 46 CA</title></circle>
<circle cx="439.5" cy="152.1" r="4.2" fill="rgb(126,149,113)" fill-opacity="0.82" stroke="#172033" stroke-width="0.45"><title>THR 154 CA</title></circle>
<circle cx="258.4" cy="134.4" r="4.2" fill="rgb(127,149,112)" fill-opacity="0.82" stroke="#172033" stroke-width="0.45"><title>GLU 69 CA</title></circle>
<circle cx="452.1" cy="169.4" r="4.2" fill="rgb(127,149,112)" fill-opacity="0.82" stroke="#172033" stroke-width="0.45"><title>GLU 89 CA</title></circle>
<circle cx="482.7" cy="313.9" r="4.2" fill="rgb(127,149,112)" fill-opacity="0.82" stroke="#172033" stroke-width="0.45"><title>TYR 134 CA</title></circle>
<circle cx="474.1" cy="110.3" r="4.2" fill="rgb(127,149,112)" fill-opacity="0.82" stroke="#172033" stroke-width="0.45"><title>LYS 160 CA</title></circle>
<circle cx="493.6" cy="190.9" r="4.2" fill="rgb(127,149,112)" fill-opacity="0.82" stroke="#172033" stroke-width="0.45"><title>TYR 92 CA</title></circle>
<circle cx="401.0" cy="162.0" r="4.2" fill="rgb(128,150,112)" fill-opacity="0.82" stroke="#172033" stroke-width="0.45"><title>VAL 76 CA</title></circle>
<circle cx="544.0" cy="243.0" r="4.2" fill="rgb(128,150,112)" fill-opacity="0.82" stroke="#172033" stroke-width="0.45"><title>VAL 103 CA</title></circle>
<circle cx="444.1" cy="188.5" r="4.2" fill="rgb(128,150,111)" fill-opacity="0.82" stroke="#172033" stroke-width="0.45"><title>LYS 149 CA</title></circle>
<circle cx="457.2" cy="221.4" r="4.2" fill="rgb(129,150,111)" fill-opacity="0.82" stroke="#172033" stroke-width="0.45"><title>LEU 96 CA</title></circle>
<circle cx="410.6" cy="236.4" r="4.2" fill="rgb(129,150,111)" fill-opacity="0.82" stroke="#172033" stroke-width="0.45"><title>ILE 141 CA</title></circle>
<circle cx="431.9" cy="238.5" r="4.2" fill="rgb(129,150,111)" fill-opacity="0.82" stroke="#172033" stroke-width="0.45"><title>LYS 147 CA</title></circle>
<circle cx="533.8" cy="204.3" r="4.3" fill="rgb(129,150,111)" fill-opacity="0.82" stroke="#172033" stroke-width="0.45"><title>THR 102 CA</title></circle>
<circle cx="475.3" cy="199.3" r="4.3" fill="rgb(129,150,111)" fill-opacity="0.82" stroke="#172033" stroke-width="0.45"><title>LEU 99 CA</title></circle>
<circle cx="397.8" cy="124.9" r="4.3" fill="rgb(129,150,111)" fill-opacity="0.82" stroke="#172033" stroke-width="0.45"><title>TYR 85 CA</title></circle>
<circle cx="413.5" cy="181.4" r="4.3" fill="rgb(129,151,111)" fill-opacity="0.82" stroke="#172033" stroke-width="0.45"><title>ALA 88 CA</title></circle>
<circle cx="478.3" cy="154.2" r="4.3" fill="rgb(130,151,111)" fill-opacity="0.82" stroke="#172033" stroke-width="0.45"><title>VAL 153 CA</title></circle>
<circle cx="460.0" cy="260.7" r="4.3" fill="rgb(131,151,110)" fill-opacity="0.82" stroke="#172033" stroke-width="0.45"><title>ALA 95 CA</title></circle>
<circle cx="435.3" cy="125.7" r="4.3" fill="rgb(131,152,110)" fill-opacity="0.82" stroke="#172033" stroke-width="0.45"><title>TYR 47 CA</title></circle>
<circle cx="450.5" cy="330.3" r="4.3" fill="rgb(131,152,110)" fill-opacity="0.82" stroke="#172033" stroke-width="0.45"><title>ARG 135 CA</title></circle>
<circle cx="488.7" cy="213.2" r="4.3" fill="rgb(132,152,110)" fill-opacity="0.82" stroke="#172033" stroke-width="0.45"><title>PRO 151 CA</title></circle>
<circle cx="437.8" cy="292.2" r="4.3" fill="rgb(132,152,109)" fill-opacity="0.82" stroke="#172033" stroke-width="0.45"><title>LYS 136 CA</title></circle>
<circle cx="337.1" cy="181.4" r="4.3" fill="rgb(132,152,109)" fill-opacity="0.82" stroke="#172033" stroke-width="0.45"><title>GLN 64 CA</title></circle>
<circle cx="458.3" cy="204.6" r="4.3" fill="rgb(133,152,109)" fill-opacity="0.82" stroke="#172033" stroke-width="0.45"><title>ASP 93 CA</title></circle>
<circle cx="446.9" cy="238.8" r="4.3" fill="rgb(133,152,109)" fill-opacity="0.82" stroke="#172033" stroke-width="0.45"><title>CYS 127 CA</title></circle>
<circle cx="315.5" cy="128.5" r="4.4" fill="rgb(133,153,109)" fill-opacity="0.82" stroke="#172033" stroke-width="0.45"><title>GLU 66 CA</title></circle>
<circle cx="493.8" cy="160.0" r="4.4" fill="rgb(134,153,108)" fill-opacity="0.82" stroke="#172033" stroke-width="0.45"><title>GLY 91 CA</title></circle>
<circle cx="458.1" cy="140.8" r="4.4" fill="rgb(134,153,108)" fill-opacity="0.82" stroke="#172033" stroke-width="0.45"><title>SER 90 CA</title></circle>
<circle cx="425.9" cy="185.8" r="4.4" fill="rgb(135,153,108)" fill-opacity="0.82" stroke="#172033" stroke-width="0.45"><title>LEU 55 CA</title></circle>
<circle cx="357.2" cy="147.9" r="4.4" fill="rgb(135,153,108)" fill-opacity="0.82" stroke="#172033" stroke-width="0.45"><title>ASN 63 CA</title></circle>
<circle cx="500.7" cy="116.2" r="4.4" fill="rgb(135,154,108)" fill-opacity="0.82" stroke="#172033" stroke-width="0.45"><title>ARG 161 CA</title></circle>
<circle cx="302.3" cy="165.7" r="4.4" fill="rgb(136,154,107)" fill-opacity="0.82" stroke="#172033" stroke-width="0.45"><title>SER 65 CA</title></circle>
<circle cx="438.6" cy="317.8" r="4.4" fill="rgb(136,154,107)" fill-opacity="0.82" stroke="#172033" stroke-width="0.45"><title>THR 130 CA</title></circle>
<circle cx="478.1" cy="259.4" r="4.4" fill="rgb(136,154,107)" fill-opacity="0.82" stroke="#172033" stroke-width="0.45"><title>TRP 128 CA</title></circle>
<circle cx="414.4" cy="168.7" r="4.4" fill="rgb(137,154,107)" fill-opacity="0.82" stroke="#172033" stroke-width="0.45"><title>SER 51 CA</title></circle>
<circle cx="454.9" cy="167.6" r="4.4" fill="rgb(137,155,107)" fill-opacity="0.82" stroke="#172033" stroke-width="0.45"><title>GLU 50 CA</title></circle>
<circle cx="479.7" cy="149.5" r="4.4" fill="rgb(137,155,106)" fill-opacity="0.82" stroke="#172033" stroke-width="0.45"><title>TYR 162 CA</title></circle>
<circle cx="478.7" cy="181.4" r="4.5" fill="rgb(138,155,106)" fill-opacity="0.82" stroke="#172033" stroke-width="0.45"><title>LEU 152 CA</title></circle>
<circle cx="407.7" cy="208.4" r="4.5" fill="rgb(138,155,106)" fill-opacity="0.82" stroke="#172033" stroke-width="0.45"><title>PRO 52 CA</title></circle>
<circle cx="472.5" cy="298.3" r="4.5" fill="rgb(138,155,106)" fill-opacity="0.82" stroke="#172033" stroke-width="0.45"><title>VAL 129 CA</title></circle>
<circle cx="468.0" cy="234.7" r="4.5" fill="rgb(139,156,106)" fill-opacity="0.82" stroke="#172033" stroke-width="0.45"><title>ILE 94 CA</title></circle>
<circle cx="446.2" cy="107.0" r="4.5" fill="rgb(140,156,105)" fill-opacity="0.82" stroke="#172033" stroke-width="0.45"><title>GLY 48 CA</title></circle>
<circle cx="447.0" cy="129.4" r="4.5" fill="rgb(140,156,105)" fill-opacity="0.82" stroke="#172033" stroke-width="0.45"><title>ARG 163 CA</title></circle>
<circle cx="414.7" cy="154.2" r="4.5" fill="rgb(141,157,105)" fill-opacity="0.82" stroke="#172033" stroke-width="0.45"><title>ARG 56 CA</title></circle>
<circle cx="538.0" cy="322.3" r="4.5" fill="rgb(141,157,104)" fill-opacity="0.82" stroke="#172033" stroke-width="0.45"><title>HIS 201 CA</title></circle>
<circle cx="458.0" cy="187.9" r="4.5" fill="rgb(141,157,104)" fill-opacity="0.82" stroke="#172033" stroke-width="0.45"><title>ILE 54 CA</title></circle>
<circle cx="479.1" cy="108.3" r="4.6" fill="rgb(143,158,103)" fill-opacity="0.82" stroke="#172033" stroke-width="0.45"><title>GLY 164 CA</title></circle>
<circle cx="461.7" cy="140.1" r="4.6" fill="rgb(145,159,102)" fill-opacity="0.82" stroke="#172033" stroke-width="0.45"><title>VAL 49 CA</title></circle>
<circle cx="436.5" cy="218.6" r="4.6" fill="rgb(145,159,102)" fill-opacity="0.82" stroke="#172033" stroke-width="0.45"><title>LYS 53 CA</title></circle>
<circle cx="354.3" cy="158.1" r="4.6" fill="rgb(145,159,102)" fill-opacity="0.82" stroke="#172033" stroke-width="0.45"><title>LEU 62 CA</title></circle>
<circle cx="572.4" cy="333.0" r="4.6" fill="rgb(146,160,102)" fill-opacity="0.82" stroke="#172033" stroke-width="0.45"><title>TRP 200 CA</title></circle>
<circle cx="487.9" cy="178.1" r="4.7" fill="rgb(146,160,102)" fill-opacity="0.82" stroke="#172033" stroke-width="0.45"><title>ILE 167 CA</title></circle>
<circle cx="380.9" cy="187.9" r="4.7" fill="rgb(146,160,101)" fill-opacity="0.82" stroke="#172033" stroke-width="0.45"><title>ILE 61 CA</title></circle>
<circle cx="508.9" cy="305.6" r="4.7" fill="rgb(147,160,101)" fill-opacity="0.82" stroke="#172033" stroke-width="0.45"><title>LEU 202 CA</title></circle>
<circle cx="444.9" cy="160.6" r="4.7" fill="rgb(148,161,101)" fill-opacity="0.82" stroke="#172033" stroke-width="0.45"><title>VAL 57 CA</title></circle>
<circle cx="524.7" cy="319.2" r="4.7" fill="rgb(149,161,100)" fill-opacity="0.82" stroke="#172033" stroke-width="0.45"><title>CYS 184 CA</title></circle>
<circle cx="590.7" cy="444.5" r="4.7" fill="rgb(149,161,100)" fill-opacity="0.82" stroke="#172033" stroke-width="0.45"><title>VAL 220 CA</title></circle>
<circle cx="615.2" cy="505.7" r="4.7" fill="rgb(149,161,100)" fill-opacity="0.82" stroke="#172033" stroke-width="0.45"><title>VAL 225 CA</title></circle>
<circle cx="545.9" cy="488.8" r="4.7" fill="rgb(150,162,99)" fill-opacity="0.82" stroke="#172033" stroke-width="0.45"><title>TYR 227 CA</title></circle>
<circle cx="551.1" cy="368.5" r="4.7" fill="rgb(150,162,99)" fill-opacity="0.82" stroke="#172033" stroke-width="0.45"><title>ILE 205 CA</title></circle>
<circle cx="544.1" cy="408.1" r="4.8" fill="rgb(150,162,99)" fill-opacity="0.82" stroke="#172033" stroke-width="0.45"><title>THR 206 CA</title></circle>
<circle cx="577.1" cy="515.1" r="4.8" fill="rgb(151,162,99)" fill-opacity="0.82" stroke="#172033" stroke-width="0.45"><title>GLU 226 CA</title></circle>
<circle cx="563.9" cy="473.0" r="4.8" fill="rgb(151,163,99)" fill-opacity="0.82" stroke="#172033" stroke-width="0.45"><title>GLY 219 CA</title></circle>
<circle cx="511.1" cy="154.0" r="4.8" fill="rgb(152,163,98)" fill-opacity="0.82" stroke="#172033" stroke-width="0.45"><title>LYS 166 CA</title></circle>
<circle cx="464.0" cy="155.3" r="4.8" fill="rgb(152,163,98)" fill-opacity="0.82" stroke="#172033" stroke-width="0.45"><title>THR 168 CA</title></circle>
<circle cx="477.7" cy="131.4" r="4.8" fill="rgb(152,163,98)" fill-opacity="0.82" stroke="#172033" stroke-width="0.45"><title>HIS 165 CA</title></circle>
<circle cx="517.5" cy="488.8" r="4.8" fill="rgb(153,163,98)" fill-opacity="0.82" stroke="#172033" stroke-width="0.45"><title>GLN 214 CA</title></circle>
<circle cx="437.3" cy="185.3" r="4.8" fill="rgb(153,164,98)" fill-opacity="0.82" stroke="#172033" stroke-width="0.45"><title>HIS 169 CA</title></circle>
<circle cx="555.2" cy="504.5" r="4.8" fill="rgb(153,164,98)" fill-opacity="0.82" stroke="#172033" stroke-width="0.45"><title>ARG 215 CA</title></circle>
<circle cx="530.0" cy="450.1" r="4.8" fill="rgb(154,164,97)" fill-opacity="0.82" stroke="#172033" stroke-width="0.45"><title>ALA 213 CA</title></circle>
<circle cx="498.3" cy="295.0" r="4.8" fill="rgb(154,164,97)" fill-opacity="0.82" stroke="#172033" stroke-width="0.45"><title>ALA 183 CA</title></circle>
<circle cx="532.3" cy="351.4" r="4.8" fill="rgb(154,164,97)" fill-opacity="0.82" stroke="#172033" stroke-width="0.45"><title>LYS 185 CA</title></circle>
<circle cx="641.6" cy="484.6" r="4.9" fill="rgb(154,164,97)" fill-opacity="0.82" stroke="#172033" stroke-width="0.45"><title>VAL 224 CA</title></circle>
<circle cx="573.5" cy="354.7" r="4.9" fill="rgb(155,164,97)" fill-opacity="0.82" stroke="#172033" stroke-width="0.45"><title>VAL 199 CA</title></circle>
<circle cx="384.2" cy="187.4" r="4.9" fill="rgb(157,166,96)" fill-opacity="0.82" stroke="#172033" stroke-width="0.45"><title>GLY 60 CA</title></circle>
<circle cx="523.3" cy="313.1" r="4.9" fill="rgb(157,166,95)" fill-opacity="0.82" stroke="#172033" stroke-width="0.45"><title>VAL 203 CA</title></circle>
<circle cx="437.9" cy="155.0" r="4.9" fill="rgb(158,166,95)" fill-opacity="0.82" stroke="#172033" stroke-width="0.45"><title>TYR 58 CA</title></circle>
<circle cx="549.2" cy="343.6" r="4.9" fill="rgb(158,167,95)" fill-opacity="0.82" stroke="#172033" stroke-width="0.45"><title>GLY 204 CA</title></circle>
<circle cx="480.9" cy="217.7" r="4.9" fill="rgb(158,167,95)" fill-opacity="0.82" stroke="#172033" stroke-width="0.45"><title>MET 171 CA</title></circle>
<circle cx="537.0" cy="459.4" r="4.9" fill="rgb(159,167,95)" fill-opacity="0.82" stroke="#172033" stroke-width="0.45"><title>PRO 218 CA</title></circle>
<circle cx="423.6" cy="192.6" r="4.9" fill="rgb(159,167,95)" fill-opacity="0.82" stroke="#172033" stroke-width="0.45"><title>SER 59 CA</title></circle>
<circle cx="523.5" cy="488.6" r="5.0" fill="rgb(159,167,95)" fill-opacity="0.82" stroke="#172033" stroke-width="0.45"><title>VAL 228 CA</title></circle>
<circle cx="592.2" cy="434.2" r="5.0" fill="rgb(159,167,94)" fill-opacity="0.82" stroke="#172033" stroke-width="0.45"><title>TYR 221 CA</title></circle>
<circle cx="531.8" cy="428.3" r="5.0" fill="rgb(159,167,94)" fill-opacity="0.82" stroke="#172033" stroke-width="0.45"><title>SER 207 CA</title></circle>
<circle cx="508.0" cy="226.6" r="5.0" fill="rgb(160,167,94)" fill-opacity="0.82" stroke="#172033" stroke-width="0.45"><title>GLY 180 CA</title></circle>
<circle cx="540.4" cy="250.5" r="5.0" fill="rgb(160,167,94)" fill-opacity="0.82" stroke="#172033" stroke-width="0.45"><title>LYS 181 CA</title></circle>
<circle cx="560.3" cy="324.6" r="5.0" fill="rgb(161,168,93)" fill-opacity="0.82" stroke="#172033" stroke-width="0.45"><title>GLU 198 CA</title></circle>
<circle cx="486.8" cy="350.7" r="5.0" fill="rgb(161,168,93)" fill-opacity="0.82" stroke="#172033" stroke-width="0.45"><title>CYS 194 CA</title></circle>
<circle cx="524.6" cy="286.9" r="5.0" fill="rgb(162,168,93)" fill-opacity="0.82" stroke="#172033" stroke-width="0.45"><title>ASP 182 CA</title></circle>
<circle cx="459.8" cy="185.8" r="5.0" fill="rgb(162,168,93)" fill-opacity="0.82" stroke="#172033" stroke-width="0.45"><title>LYS 170 CA</title></circle>
<circle cx="555.7" cy="521.9" r="5.0" fill="rgb(162,169,92)" fill-opacity="0.82" stroke="#172033" stroke-width="0.45"><title>GLU 216 CA</title></circle>
<circle cx="505.5" cy="190.8" r="5.1" fill="rgb(163,169,92)" fill-opacity="0.82" stroke="#172033" stroke-width="0.45"><title>ILE 172 CA</title></circle>
<circle cx="552.6" cy="458.7" r="5.1" fill="rgb(163,169,92)" fill-opacity="0.82" stroke="#172033" stroke-width="0.45"><title>CYS 212 CA</title></circle>
<circle cx="539.7" cy="334.2" r="5.1" fill="rgb(164,170,92)" fill-opacity="0.82" stroke="#172033" stroke-width="0.45"><title>GLY 186 CA</title></circle>
<circle cx="490.9" cy="287.8" r="5.1" fill="rgb(164,170,92)" fill-opacity="0.82" stroke="#172033" stroke-width="0.45"><title>LEU 192 CA</title></circle>
<circle cx="552.0" cy="483.2" r="5.1" fill="rgb(165,170,91)" fill-opacity="0.82" stroke="#172033" stroke-width="0.45"><title>ARG 217 CA</title></circle>
<circle cx="636.0" cy="482.7" r="5.1" fill="rgb(165,170,91)" fill-opacity="0.82" stroke="#172033" stroke-width="0.45"><title>ASN 223 CA</title></circle>
<circle cx="519.4" cy="479.9" r="5.1" fill="rgb(167,171,90)" fill-opacity="0.82" stroke="#172033" stroke-width="0.45"><title>GLY 211 CA</title></circle>
<circle cx="540.0" cy="401.5" r="5.1" fill="rgb(167,171,90)" fill-opacity="0.82" stroke="#172033" stroke-width="0.45"><title>TRP 208 CA</title></circle>
<circle cx="606.9" cy="455.9" r="5.1" fill="rgb(167,171,90)" fill-opacity="0.82" stroke="#172033" stroke-width="0.45"><title>THR 222 CA</title></circle>
<circle cx="499.3" cy="381.6" r="5.2" fill="rgb(167,172,90)" fill-opacity="0.82" stroke="#172033" stroke-width="0.45"><title>LYS 195 CA</title></circle>
<circle cx="472.4" cy="176.0" r="5.2" fill="rgb(168,172,90)" fill-opacity="0.82" stroke="#172033" stroke-width="0.45"><title>CYS 173 CA</title></circle>
<circle cx="526.7" cy="276.2" r="5.2" fill="rgb(168,172,89)" fill-opacity="0.82" stroke="#172033" stroke-width="0.45"><title>PRO 191 CA</title></circle>
<circle cx="513.3" cy="204.7" r="5.2" fill="rgb(169,172,89)" fill-opacity="0.82" stroke="#172033" stroke-width="0.45"><title>GLY 179 CA</title></circle>
<circle cx="481.6" cy="322.5" r="5.2" fill="rgb(169,172,89)" fill-opacity="0.82" stroke="#172033" stroke-width="0.45"><title>SER 193 CA</title></circle>
<circle cx="538.0" cy="483.6" r="5.2" fill="rgb(169,172,89)" fill-opacity="0.82" stroke="#172033" stroke-width="0.45"><title>ASP 229 CA</title></circle>
<circle cx="549.0" cy="367.7" r="5.2" fill="rgb(169,173,89)" fill-opacity="0.82" stroke="#172033" stroke-width="0.45"><title>ASP 187 CA</title></circle>
<circle cx="553.8" cy="346.5" r="5.2" fill="rgb(169,173,89)" fill-opacity="0.82" stroke="#172033" stroke-width="0.45"><title>ASN 197 CA</title></circle>
<circle cx="553.3" cy="206.5" r="5.2" fill="rgb(170,173,88)" fill-opacity="0.82" stroke="#172033" stroke-width="0.45"><title>GLU 178 CA</title></circle>
<circle cx="504.3" cy="449.0" r="5.3" fill="rgb(172,174,87)" fill-opacity="0.82" stroke="#172033" stroke-width="0.45"><title>GLU 210 CA</title></circle>
<circle cx="522.6" cy="363.6" r="5.3" fill="rgb(175,176,86)" fill-opacity="0.82" stroke="#172033" stroke-width="0.45"><title>HIS 196 CA</title></circle>
<circle cx="495.7" cy="222.3" r="5.3" fill="rgb(175,176,85)" fill-opacity="0.82" stroke="#172033" stroke-width="0.45"><title>GLY 175 CA</title></circle>
<circle cx="531.1" cy="422.4" r="5.3" fill="rgb(175,176,85)" fill-opacity="0.82" stroke="#172033" stroke-width="0.45"><title>GLY 209 CA</title></circle>
<circle cx="571.3" cy="309.7" r="5.4" fill="rgb(176,176,85)" fill-opacity="0.82" stroke="#172033" stroke-width="0.45"><title>GLY 189 CA</title></circle>
<circle cx="532.3" cy="299.4" r="5.4" fill="rgb(176,176,85)" fill-opacity="0.82" stroke="#172033" stroke-width="0.45"><title>GLY 190 CA</title></circle>
<circle cx="556.2" cy="555.3" r="5.4" fill="rgb(177,177,84)" fill-opacity="0.82" stroke="#172033" stroke-width="0.45"><title>LEU 232 CA</title></circle>
<circle cx="570.4" cy="349.8" r="5.4" fill="rgb(177,177,84)" fill-opacity="0.82" stroke="#172033" stroke-width="0.45"><title>SER 188 CA</title></circle>
<circle cx="478.3" cy="187.5" r="5.4" fill="rgb(178,177,84)" fill-opacity="0.82" stroke="#172033" stroke-width="0.45"><title>ALA 174 CA</title></circle>
<circle cx="532.8" cy="502.7" r="5.4" fill="rgb(178,177,84)" fill-opacity="0.82" stroke="#172033" stroke-width="0.45"><title>TRP 230 CA</title></circle>
<circle cx="557.2" cy="230.7" r="5.4" fill="rgb(178,177,84)" fill-opacity="0.82" stroke="#172033" stroke-width="0.45"><title>ARG 177 CA</title></circle>
<circle cx="593.5" cy="554.0" r="5.4" fill="rgb(179,178,83)" fill-opacity="0.82" stroke="#172033" stroke-width="0.45"><title>ALA 237 CA</title></circle>
<circle cx="565.2" cy="520.8" r="5.5" fill="rgb(182,180,82)" fill-opacity="0.82" stroke="#172033" stroke-width="0.45"><title>ILE 231 CA</title></circle>
<circle cx="606.4" cy="518.1" r="5.5" fill="rgb(183,180,81)" fill-opacity="0.82" stroke="#172033" stroke-width="0.45"><title>VAL 238 CA</title></circle>
<circle cx="521.3" cy="228.0" r="5.5" fill="rgb(183,180,81)" fill-opacity="0.82" stroke="#172033" stroke-width="0.45"><title>TYR 176 CA</title></circle>
<circle cx="539.4" cy="571.5" r="5.6" fill="rgb(186,182,79)" fill-opacity="0.82" stroke="#172033" stroke-width="0.45"><title>GLU 233 CA</title></circle>
<circle cx="602.3" cy="582.0" r="5.6" fill="rgb(186,182,79)" fill-opacity="0.82" stroke="#172033" stroke-width="0.45"><title>GLN 236 CA</title></circle>
<circle cx="556.0" cy="540.5" r="5.7" fill="rgb(191,184,77)" fill-opacity="0.82" stroke="#172033" stroke-width="0.45"><title>LYS 234 CA</title></circle>
<circle cx="588.7" cy="559.4" r="5.8" fill="rgb(195,187,75)" fill-opacity="0.82" stroke="#172033" stroke-width="0.45"><title>THR 235 CA</title></circle>
</svg>
