<?xml version="1.0" encoding="UTF-8"?>
<svg xmlns="http://www.w3.org/2000/svg" width="900" height="640" viewBox="0 0 900 640" role="img" aria-label="H2319 chain_C object projection">
<rect width="100%" height="100%" fill="#f8fafc"/>
<text x="58" y="38" font-family="Arial, sans-serif" font-size="22" font-weight="700" fill="#111827">H2319 chain_C object projection</text>
<text x="58" y="62" font-family="Arial, sans-serif" font-size="13" fill="#475569">atoms shown: 108; all atoms: 531; bbox diagonal: 45.6 A</text>
<polyline points="244.1,325.4 284.2,232.0 176.3,323.6 347.8,240.2 359.1,140.8 499.5,324.7 527.5,258.2 349.0,208.0 548.8,408.9 439.3,178.6 249.7,209.0 424.7,129.5 231.5,308.8 448.0,310.6 523.1,164.8 482.2,254.5 377.2,220.7 376.2,293.5 375.4,128.4 568.6,219.9 437.7,91.8 667.7,241.8 474.5,149.6 549.7,445.1 385.7,304.2 500.6,241.3 649.7,332.2 445.1,265.2 340.9,281.2 556.2,114.7 458.6,139.8 537.5,255.6 633.6,509.3 476.1,304.2 426.5,329.7 417.2,275.7 492.6,404.4 680.8,206.3 770.3,252.3 628.7,290.6 576.7,185.1 440.6,195.4 586.6,562.8 657.7,435.5 357.4,265.5 513.2,259.8 728.6,323.0 605.4,184.7 370.7,132.6 695.2,231.5 801.8,391.9 744.3,475.8 599.3,489.2 503.0,186.9 535.4,243.5 619.8,191.2 388.4,272.2 711.2,302.2 619.9,437.7 402.5,107.3 561.6,349.4 461.6,253.2 607.8,102.1 596.7,399.1 440.9,198.5 532.0,301.4 620.8,254.1 639.7,317.2 231.3,186.7 530.8,454.5 555.3,245.7 536.7,141.2 260.6,242.7 647.2,442.1 572.2,301.3 378.2,217.6 502.4,227.9 172.6,203.0 641.3,220.6 628.9,535.7 304.9,153.9 186.6,251.1 717.8,582.0 461.9,181.1 603.4,130.8 99.0,210.4 662.4,451.4 220.9,124.5 563.3,428.7 518.0,261.1 144.2,58.0 159.8,267.8 433.1,306.4 180.3,180.9 435.7,167.2 732.5,570.4 479.4,301.8 98.2,77.5 682.2,483.7 99.8,179.1 565.3,255.2 435.0,378.8 410.3,237.6 524.2,164.5 520.7,393.7 591.5,321.1 473.0,191.9 568.0,226.2" fill="none" stroke="#334155" stroke-width="1.25" stroke-opacity="0.42"/>
<circle cx="244.1" cy="325.4" r="2.2" fill="rgb(43,103,160)" fill-opacity="0.82" stroke="#172033" stroke-width="0.45"><title>SER 41 CA</title></circle>
<circle cx="284.2" cy="232.0" r="2.2" fill="rgb(43,103,159)" fill-opacity="0.82" stroke="#172033" stroke-width="0.45"><title>SER 42 CA</title></circle>
<circle cx="176.3" cy="323.6" r="2.5" fill="rgb(56,110,152)" fill-opacity="0.82" stroke="#172033" stroke-width="0.45"><title>GLY 40 CA</title></circle>
<circle cx="347.8" cy="240.2" r="2.5" fill="rgb(57,110,152)" fill-opacity="0.82" stroke="#172033" stroke-width="0.45"><title>PRO 43 CA</title></circle>
<circle cx="359.1" cy="140.8" r="2.6" fill="rgb(60,112,150)" fill-opacity="0.82" stroke="#172033" stroke-width="0.45"><title>LYS 44 CA</title></circle>
<circle cx="499.5" cy="324.7" r="2.6" fill="rgb(61,113,149)" fill-opacity="0.82" stroke="#172033" stroke-width="0.45"><title>SER 30 CA</title></circle>
<circle cx="527.5" cy="258.2" r="2.7" fill="rgb(65,115,147)" fill-opacity="0.82" stroke="#172033" stroke-width="0.45"><title>GLU 17 CA</title></circle>
<circle cx="349.0" cy="208.0" r="2.8" fill="rgb(66,116,146)" fill-opacity="0.82" stroke="#172033" stroke-width="0.45"><title>GLN 37 CA</title></circle>
<circle cx="548.8" cy="408.9" r="2.8" fill="rgb(67,116,146)" fill-opacity="0.82" stroke="#172033" stroke-width="0.45"><title>TYR 31 CA</title></circle>
<circle cx="439.3" cy="178.6" r="2.8" fill="rgb(67,116,146)" fill-opacity="0.82" stroke="#172033" stroke-width="0.45"><title>SER 28 CA</title></circle>
<circle cx="249.7" cy="209.0" r="2.9" fill="rgb(70,118,144)" fill-opacity="0.82" stroke="#172033" stroke-width="0.45"><title>LYS 38 CA</title></circle>
<circle cx="424.7" cy="129.5" r="2.9" fill="rgb(70,118,144)" fill-opacity="0.82" stroke="#172033" stroke-width="0.45"><title>VAL 19 CA</title></circle>
<circle cx="231.5" cy="308.8" r="2.9" fill="rgb(71,118,143)" fill-opacity="0.82" stroke="#172033" stroke-width="0.45"><title>PRO 39 CA</title></circle>
<circle cx="448.0" cy="310.6" r="2.9" fill="rgb(71,118,143)" fill-opacity="0.82" stroke="#172033" stroke-width="0.45"><title>GLY 16 CA</title></circle>
<circle cx="523.1" cy="164.8" r="2.9" fill="rgb(72,119,143)" fill-opacity="0.82" stroke="#172033" stroke-width="0.45"><title>LYS 18 CA</title></circle>
<circle cx="482.2" cy="254.5" r="3.0" fill="rgb(74,120,142)" fill-opacity="0.82" stroke="#172033" stroke-width="0.45"><title>VAL 29 CA</title></circle>
<circle cx="377.2" cy="220.7" r="3.0" fill="rgb(75,120,142)" fill-opacity="0.82" stroke="#172033" stroke-width="0.45"><title>THR 20 CA</title></circle>
<circle cx="376.2" cy="293.5" r="3.0" fill="rgb(75,120,141)" fill-opacity="0.82" stroke="#172033" stroke-width="0.45"><title>GLN 36 CA</title></circle>
<circle cx="375.4" cy="128.4" r="3.0" fill="rgb(78,122,140)" fill-opacity="0.82" stroke="#172033" stroke-width="0.45"><title>PRO 45 CA</title></circle>
<circle cx="568.6" cy="219.9" r="3.0" fill="rgb(78,122,140)" fill-opacity="0.82" stroke="#172033" stroke-width="0.45"><title>ALA 13 CA</title></circle>
<circle cx="437.7" cy="91.8" r="3.1" fill="rgb(78,122,139)" fill-opacity="0.82" stroke="#172033" stroke-width="0.45"><title>SER 27 CA</title></circle>
<circle cx="667.7" cy="241.8" r="3.1" fill="rgb(79,123,139)" fill-opacity="0.82" stroke="#172033" stroke-width="0.45"><title>SER 12 CA</title></circle>
<circle cx="474.5" cy="149.6" r="3.1" fill="rgb(79,123,139)" fill-opacity="0.82" stroke="#172033" stroke-width="0.45"><title>TRP 46 CA</title></circle>
<circle cx="549.7" cy="445.1" r="3.2" fill="rgb(84,125,137)" fill-opacity="0.82" stroke="#172033" stroke-width="0.45"><title>MET 32 CA</title></circle>
<circle cx="385.7" cy="304.2" r="3.2" fill="rgb(85,126,136)" fill-opacity="0.82" stroke="#172033" stroke-width="0.45"><title>MET 21 CA</title></circle>
<circle cx="500.6" cy="241.3" r="3.2" fill="rgb(86,126,135)" fill-opacity="0.82" stroke="#172033" stroke-width="0.45"><title>ILE 47 CA</title></circle>
<circle cx="649.7" cy="332.2" r="3.2" fill="rgb(87,127,135)" fill-opacity="0.82" stroke="#172033" stroke-width="0.45"><title>LEU 11 CA</title></circle>
<circle cx="445.1" cy="265.2" r="3.3" fill="rgb(87,127,135)" fill-opacity="0.82" stroke="#172033" stroke-width="0.45"><title>PRO 15 CA</title></circle>
<circle cx="340.9" cy="281.2" r="3.4" fill="rgb(92,130,132)" fill-opacity="0.82" stroke="#172033" stroke-width="0.45"><title>TYR 35 CA</title></circle>
<circle cx="556.2" cy="114.7" r="3.4" fill="rgb(92,130,132)" fill-opacity="0.82" stroke="#172033" stroke-width="0.45"><title>ALA 25 CA</title></circle>
<circle cx="458.6" cy="139.8" r="3.4" fill="rgb(94,131,131)" fill-opacity="0.82" stroke="#172033" stroke-width="0.45"><title>SER 26 CA</title></circle>
<circle cx="537.5" cy="255.6" r="3.4" fill="rgb(94,131,131)" fill-opacity="0.82" stroke="#172033" stroke-width="0.45"><title>SER 14 CA</title></circle>
<circle cx="633.6" cy="509.3" r="3.4" fill="rgb(95,131,130)" fill-opacity="0.82" stroke="#172033" stroke-width="0.45"><title>GLN 1 CA</title></circle>
<circle cx="476.1" cy="304.2" r="3.4" fill="rgb(95,131,130)" fill-opacity="0.82" stroke="#172033" stroke-width="0.45"><title>THR 22 CA</title></circle>
<circle cx="426.5" cy="329.7" r="3.4" fill="rgb(95,131,130)" fill-opacity="0.82" stroke="#172033" stroke-width="0.45"><title>TRP 34 CA</title></circle>
<circle cx="417.2" cy="275.7" r="3.5" fill="rgb(95,132,130)" fill-opacity="0.82" stroke="#172033" stroke-width="0.45"><title>TYR 48 CA</title></circle>
<circle cx="492.6" cy="404.4" r="3.5" fill="rgb(97,133,129)" fill-opacity="0.82" stroke="#172033" stroke-width="0.45"><title>TYR 33 CA</title></circle>
<circle cx="680.8" cy="206.3" r="3.5" fill="rgb(99,134,128)" fill-opacity="0.82" stroke="#172033" stroke-width="0.45"><title>ALA 9 CA</title></circle>
<circle cx="770.3" cy="252.3" r="3.6" fill="rgb(101,135,127)" fill-opacity="0.82" stroke="#172033" stroke-width="0.45"><title>PRO 8 CA</title></circle>
<circle cx="628.7" cy="290.6" r="3.6" fill="rgb(103,136,126)" fill-opacity="0.82" stroke="#172033" stroke-width="0.45"><title>ILE 10 CA</title></circle>
<circle cx="576.7" cy="185.1" r="3.7" fill="rgb(104,137,125)" fill-opacity="0.82" stroke="#172033" stroke-width="0.45"><title>ARG 24 CA</title></circle>
<circle cx="440.6" cy="195.4" r="3.7" fill="rgb(107,138,124)" fill-opacity="0.82" stroke="#172033" stroke-width="0.45"><title>ALA 54 CA</title></circle>
<circle cx="586.6" cy="562.8" r="3.7" fill="rgb(108,138,123)" fill-opacity="0.82" stroke="#172033" stroke-width="0.45"><title>ILE 2 CA</title></circle>
<circle cx="657.7" cy="435.5" r="3.8" fill="rgb(109,139,123)" fill-opacity="0.82" stroke="#172033" stroke-width="0.45"><title>LEU 4 CA</title></circle>
<circle cx="357.4" cy="265.5" r="3.8" fill="rgb(109,139,122)" fill-opacity="0.82" stroke="#172033" stroke-width="0.45"><title>ALA 49 CA</title></circle>
<circle cx="513.2" cy="259.8" r="3.8" fill="rgb(109,139,122)" fill-opacity="0.82" stroke="#172033" stroke-width="0.45"><title>CYS 23 CA</title></circle>
<circle cx="728.6" cy="323.0" r="3.8" fill="rgb(112,141,121)" fill-opacity="0.82" stroke="#172033" stroke-width="0.45"><title>SER 7 CA</title></circle>
<circle cx="605.4" cy="184.7" r="3.9" fill="rgb(113,141,120)" fill-opacity="0.82" stroke="#172033" stroke-width="0.45"><title>THR 73 CA</title></circle>
<circle cx="370.7" cy="132.6" r="3.9" fill="rgb(114,142,120)" fill-opacity="0.82" stroke="#172033" stroke-width="0.45"><title>LEU 53 CA</title></circle>
<circle cx="695.2" cy="231.5" r="3.9" fill="rgb(114,142,119)" fill-opacity="0.82" stroke="#172033" stroke-width="0.45"><title>LEU 72 CA</title></circle>
<circle cx="801.8" cy="391.9" r="3.9" fill="rgb(115,142,119)" fill-opacity="0.82" stroke="#172033" stroke-width="0.45"><title>GLN 6 CA</title></circle>
<circle cx="744.3" cy="475.8" r="3.9" fill="rgb(115,142,119)" fill-opacity="0.82" stroke="#172033" stroke-width="0.45"><title>SER 5 CA</title></circle>
<circle cx="599.3" cy="489.2" r="4.0" fill="rgb(120,145,116)" fill-opacity="0.82" stroke="#172033" stroke-width="0.45"><title>VAL 3 CA</title></circle>
<circle cx="503.0" cy="186.9" r="4.1" fill="rgb(121,146,116)" fill-opacity="0.82" stroke="#172033" stroke-width="0.45"><title>SER 55 CA</title></circle>
<circle cx="535.4" cy="243.5" r="4.1" fill="rgb(121,146,116)" fill-opacity="0.82" stroke="#172033" stroke-width="0.45"><title>ILE 74 CA</title></circle>
<circle cx="619.8" cy="191.2" r="4.1" fill="rgb(124,148,114)" fill-opacity="0.82" stroke="#172033" stroke-width="0.45"><title>VAL 77 CA</title></circle>
<circle cx="388.4" cy="272.2" r="4.2" fill="rgb(126,149,113)" fill-opacity="0.82" stroke="#172033" stroke-width="0.45"><title>THR 50 CA</title></circle>
<circle cx="711.2" cy="302.2" r="4.2" fill="rgb(127,149,112)" fill-opacity="0.82" stroke="#172033" stroke-width="0.45"><title>SER 71 CA</title></circle>
<circle cx="619.9" cy="437.7" r="4.2" fill="rgb(128,150,111)" fill-opacity="0.82" stroke="#172033" stroke-width="0.45"><title>ARG 60 CA</title></circle>
<circle cx="402.5" cy="107.3" r="4.3" fill="rgb(130,151,110)" fill-opacity="0.82" stroke="#172033" stroke-width="0.45"><title>ASN 52 CA</title></circle>
<circle cx="561.6" cy="349.4" r="4.3" fill="rgb(131,152,110)" fill-opacity="0.82" stroke="#172033" stroke-width="0.45"><title>ALA 59 CA</title></circle>
<circle cx="461.6" cy="253.2" r="4.3" fill="rgb(133,152,109)" fill-opacity="0.82" stroke="#172033" stroke-width="0.45"><title>GLY 56 CA</title></circle>
<circle cx="607.8" cy="102.1" r="4.3" fill="rgb(133,152,109)" fill-opacity="0.82" stroke="#172033" stroke-width="0.45"><title>GLU 78 CA</title></circle>
<circle cx="596.7" cy="399.1" r="4.4" fill="rgb(134,153,108)" fill-opacity="0.82" stroke="#172033" stroke-width="0.45"><title>SER 69 CA</title></circle>
<circle cx="440.9" cy="198.5" r="4.4" fill="rgb(135,153,108)" fill-opacity="0.82" stroke="#172033" stroke-width="0.45"><title>SER 51 CA</title></circle>
<circle cx="532.0" cy="301.4" r="4.4" fill="rgb(136,154,107)" fill-opacity="0.82" stroke="#172033" stroke-width="0.45"><title>SER 75 CA</title></circle>
<circle cx="620.8" cy="254.1" r="4.5" fill="rgb(139,156,106)" fill-opacity="0.82" stroke="#172033" stroke-width="0.45"><title>ARG 76 CA</title></circle>
<circle cx="639.7" cy="317.2" r="4.5" fill="rgb(140,156,105)" fill-opacity="0.82" stroke="#172033" stroke-width="0.45"><title>TYR 70 CA</title></circle>
<circle cx="231.3" cy="186.7" r="4.6" fill="rgb(142,158,104)" fill-opacity="0.82" stroke="#172033" stroke-width="0.45"><title>PHE 98 CA</title></circle>
<circle cx="530.8" cy="454.5" r="4.6" fill="rgb(143,158,103)" fill-opacity="0.82" stroke="#172033" stroke-width="0.45"><title>THR 68 CA</title></circle>
<circle cx="555.3" cy="245.7" r="4.6" fill="rgb(144,158,103)" fill-opacity="0.82" stroke="#172033" stroke-width="0.45"><title>ALA 82 CA</title></circle>
<circle cx="536.7" cy="141.2" r="4.6" fill="rgb(144,158,103)" fill-opacity="0.82" stroke="#172033" stroke-width="0.45"><title>ALA 79 CA</title></circle>
<circle cx="260.6" cy="242.7" r="4.6" fill="rgb(145,159,102)" fill-opacity="0.82" stroke="#172033" stroke-width="0.45"><title>ARG 108 CA</title></circle>
<circle cx="647.2" cy="442.1" r="4.7" fill="rgb(146,160,101)" fill-opacity="0.82" stroke="#172033" stroke-width="0.45"><title>PHE 61 CA</title></circle>
<circle cx="572.2" cy="301.3" r="4.7" fill="rgb(147,160,101)" fill-opacity="0.82" stroke="#172033" stroke-width="0.45"><title>PRO 58 CA</title></circle>
<circle cx="378.2" cy="217.6" r="4.7" fill="rgb(148,161,100)" fill-opacity="0.82" stroke="#172033" stroke-width="0.45"><title>MET 96 CA</title></circle>
<circle cx="502.4" cy="227.9" r="4.7" fill="rgb(149,161,100)" fill-opacity="0.82" stroke="#172033" stroke-width="0.45"><title>VAL 57 CA</title></circle>
<circle cx="172.6" cy="203.0" r="4.8" fill="rgb(151,162,99)" fill-opacity="0.82" stroke="#172033" stroke-width="0.45"><title>LYS 107 CA</title></circle>
<circle cx="641.3" cy="220.6" r="4.8" fill="rgb(152,163,98)" fill-opacity="0.82" stroke="#172033" stroke-width="0.45"><title>ASP 81 CA</title></circle>
<circle cx="628.9" cy="535.7" r="4.8" fill="rgb(153,163,98)" fill-opacity="0.82" stroke="#172033" stroke-width="0.45"><title>SER 62 CA</title></circle>
<circle cx="304.9" cy="153.9" r="4.8" fill="rgb(154,164,97)" fill-opacity="0.82" stroke="#172033" stroke-width="0.45"><title>THR 97 CA</title></circle>
<circle cx="186.6" cy="251.1" r="4.8" fill="rgb(154,164,97)" fill-opacity="0.82" stroke="#172033" stroke-width="0.45"><title>GLY 99 CA</title></circle>
<circle cx="717.8" cy="582.0" r="4.9" fill="rgb(156,165,96)" fill-opacity="0.82" stroke="#172033" stroke-width="0.45"><title>GLY 63 CA</title></circle>
<circle cx="461.9" cy="181.1" r="4.9" fill="rgb(156,165,96)" fill-opacity="0.82" stroke="#172033" stroke-width="0.45"><title>PRO 95 CA</title></circle>
<circle cx="603.4" cy="130.8" r="4.9" fill="rgb(157,166,95)" fill-opacity="0.82" stroke="#172033" stroke-width="0.45"><title>GLU 80 CA</title></circle>
<circle cx="99.0" cy="210.4" r="5.0" fill="rgb(160,167,94)" fill-opacity="0.82" stroke="#172033" stroke-width="0.45"><title>GLY 100 CA</title></circle>
<circle cx="662.4" cy="451.4" r="5.0" fill="rgb(160,167,94)" fill-opacity="0.82" stroke="#172033" stroke-width="0.45"><title>SER 66 CA</title></circle>
<circle cx="220.9" cy="124.5" r="5.0" fill="rgb(160,167,94)" fill-opacity="0.82" stroke="#172033" stroke-width="0.45"><title>LEU 104 CA</title></circle>
<circle cx="563.3" cy="428.7" r="5.0" fill="rgb(160,167,94)" fill-opacity="0.82" stroke="#172033" stroke-width="0.45"><title>GLY 67 CA</title></circle>
<circle cx="518.0" cy="261.1" r="5.0" fill="rgb(160,168,94)" fill-opacity="0.82" stroke="#172033" stroke-width="0.45"><title>ALA 83 CA</title></circle>
<circle cx="144.2" cy="58.0" r="5.0" fill="rgb(161,168,93)" fill-opacity="0.82" stroke="#172033" stroke-width="0.45"><title>LYS 103 CA</title></circle>
<circle cx="159.8" cy="267.8" r="5.1" fill="rgb(164,170,91)" fill-opacity="0.82" stroke="#172033" stroke-width="0.45"><title>ILE 106 CA</title></circle>
<circle cx="433.1" cy="306.4" r="5.1" fill="rgb(166,171,90)" fill-opacity="0.82" stroke="#172033" stroke-width="0.45"><title>THR 84 CA</title></circle>
<circle cx="180.3" cy="180.9" r="5.3" fill="rgb(173,175,86)" fill-opacity="0.82" stroke="#172033" stroke-width="0.45"><title>GLU 105 CA</title></circle>
<circle cx="435.7" cy="167.2" r="5.3" fill="rgb(174,175,86)" fill-opacity="0.82" stroke="#172033" stroke-width="0.45"><title>PRO 94 CA</title></circle>
<circle cx="732.5" cy="570.4" r="5.3" fill="rgb(174,175,86)" fill-opacity="0.82" stroke="#172033" stroke-width="0.45"><title>SER 64 CA</title></circle>
<circle cx="479.4" cy="301.8" r="5.3" fill="rgb(174,175,86)" fill-opacity="0.82" stroke="#172033" stroke-width="0.45"><title>SER 91 CA</title></circle>
<circle cx="98.2" cy="77.5" r="5.4" fill="rgb(177,177,84)" fill-opacity="0.82" stroke="#172033" stroke-width="0.45"><title>THR 102 CA</title></circle>
<circle cx="682.2" cy="483.7" r="5.4" fill="rgb(177,177,84)" fill-opacity="0.82" stroke="#172033" stroke-width="0.45"><title>GLY 65 CA</title></circle>
<circle cx="99.8" cy="179.1" r="5.4" fill="rgb(177,177,84)" fill-opacity="0.82" stroke="#172033" stroke-width="0.45"><title>GLY 101 CA</title></circle>
<circle cx="565.3" cy="255.2" r="5.4" fill="rgb(179,178,83)" fill-opacity="0.82" stroke="#172033" stroke-width="0.45"><title>SER 92 CA</title></circle>
<circle cx="435.0" cy="378.8" r="5.4" fill="rgb(179,178,83)" fill-opacity="0.82" stroke="#172033" stroke-width="0.45"><title>TYR 85 CA</title></circle>
<circle cx="410.3" cy="237.6" r="5.5" fill="rgb(181,179,82)" fill-opacity="0.82" stroke="#172033" stroke-width="0.45"><title>TRP 90 CA</title></circle>
<circle cx="524.2" cy="164.5" r="5.5" fill="rgb(183,180,81)" fill-opacity="0.82" stroke="#172033" stroke-width="0.45"><title>ASP 93 CA</title></circle>
<circle cx="520.7" cy="393.7" r="5.7" fill="rgb(188,183,78)" fill-opacity="0.82" stroke="#172033" stroke-width="0.45"><title>TYR 86 CA</title></circle>
<circle cx="591.5" cy="321.1" r="5.7" fill="rgb(189,184,77)" fill-opacity="0.82" stroke="#172033" stroke-width="0.45"><title>CYS 87 CA</title></circle>
<circle cx="473.0" cy="191.9" r="5.8" fill="rgb(192,185,76)" fill-opacity="0.82" stroke="#172033" stroke-width="0.45"><title>GLN 89 CA</title></circle>
<circle cx="568.0" cy="226.2" r="5.8" fill="rgb(195,187,75)" fill-opacity="0.82" stroke="#172033" stroke-width="0.45"><title>GLN 88 CA</title></circle>
</svg>
